# xmcd
#
# Track frame offsets: 
#        150
#        16309
#        38339
#        54669
#        78273
#        96472
#        117147
#        139743
#        156449
#        174971
#        189328
#        207003
#        237016
#
# Disc length: 3552 seconds
#
# Revision: 3
# Processed by: cddbd v1.5.2PL0 Copyright (c) Steve Scherf et al.
# Submitted via: ExactAudioCopy v0.99pb5
#
DISCID=9b0dde0d
DTITLE=Engerling - Komm vor
DYEAR=1997
DGENRE=Blues
TTITLE0=Tom Tomskis Blues
TTITLE1=Flieg dich frei
TTITLE2=Flucht
TTITLE3=Glashaut
TTITLE4=Cadillac
TTITLE5=Nordmond
TTITLE6=Drehtanz
TTITLE7=Zinker
TTITLE8=Lewi tr‰umt
TTITLE9=Radlers Leid
TTITLE10=Raumer 39 Beat
TTITLE11=Ballade des ‰uﬂeren Lebens
TTITLE12=Niemandsland
EXTD=
EXTT0=
EXTT1=
EXTT2=
EXTT3=
EXTT4=
EXTT5=
EXTT6=
EXTT7=
EXTT8=
EXTT9=
EXTT10=
EXTT11=
EXTT12=
PLAYORDER=
